<svg width="24" height="24" viewBox="0 0 24 24" fill="none" xmlns="http://www.w3.org/2000/svg">
<path d="M17.5 19H9.00001C7.70187 18.9997 6.4294 18.6384 5.32478 17.9565C4.22017 17.2746 3.32693 16.2989 2.74488 15.1386C2.16283 13.9783 1.9149 12.679 2.0288 11.3858C2.1427 10.0927 2.61394 8.85671 3.38985 7.81598C4.16577 6.77526 5.2158 5.97079 6.42261 5.49249C7.62941 5.01418 8.94545 4.88087 10.2237 5.10747C11.5019 5.33406 12.6919 5.91162 13.6607 6.77561C14.6296 7.6396 15.3391 8.75598 15.71 10H17.5C18.6935 10 19.8381 10.4741 20.682 11.318C21.5259 12.1619 22 13.3065 22 14.5C22 15.6935 21.5259 16.8381 20.682 17.682C19.8381 18.5259 18.6935 19 17.5 19Z" stroke="white" stroke-width="2" stroke-linecap="round" stroke-linejoin="round"/>
</svg>
