<svg width="24" height="24" viewBox="0 0 24 24" fill="none" xmlns="http://www.w3.org/2000/svg">
<path d="M17.7 7.6998C17.9927 7.41796 18.3497 7.21171 18.7401 7.09892C19.1304 6.98613 19.5424 6.97019 19.9403 7.05248C20.3383 7.13477 20.7101 7.31282 21.0237 7.5712C21.3373 7.82958 21.5832 8.16051 21.7401 8.53533C21.897 8.91015 21.9602 9.31757 21.9242 9.72231C21.8882 10.127 21.754 10.5169 21.5334 10.8581C21.3128 11.1993 21.0123 11.4816 20.658 11.6806C20.3037 11.8795 19.9062 11.9891 19.5 11.9998H2M9.6 4.5998C9.83168 4.36351 10.1184 4.18839 10.4344 4.09016C10.7504 3.99192 11.0858 3.97363 11.4106 4.03693C11.7355 4.10023 12.0395 4.24314 12.2955 4.45284C12.5515 4.66255 12.7514 4.9325 12.8774 5.2385C13.0034 5.5445 13.0515 5.87698 13.0174 6.20614C12.9833 6.53531 12.8681 6.85086 12.682 7.12452C12.4959 7.39818 12.2449 7.6214 11.9513 7.77416C11.6578 7.92692 11.3309 8.00445 11 7.9998H2M12.6 19.3998C12.8317 19.6361 13.1184 19.8112 13.4344 19.9095C13.7504 20.0077 14.0858 20.026 14.4106 19.9627C14.7355 19.8994 15.0395 19.7565 15.2955 19.5468C15.5515 19.3371 15.7514 19.0671 15.8774 18.7611C16.0034 18.4551 16.0515 18.1226 16.0174 17.7935C15.9833 17.4643 15.8681 17.1487 15.682 16.8751C15.4959 16.6014 15.2449 16.3782 14.9513 16.2254C14.6578 16.0727 14.3309 15.9952 14 15.9998H2" stroke="white" stroke-width="2" stroke-linecap="round" stroke-linejoin="round"/>
</svg>
